<svg xmlns="http://www.w3.org/2000/svg" viewBox="0 0 715 715" width="215" height="215">
	<style>
		tspan { white-space:pre }
		.shp0 { fill: #a5ce39 } 
		.shp1 { fill: #8ec73f } 
		.shp2 { fill: #c1d95e } 
		.shp3 { fill: #ffffff } 
	</style>
	<g id="Layer">
		<g id="Layer">
			<g id="Layer">
				<path id="Layer" class="shp0" d="M-0.41 651.58C-0.41 651.58 93.87 571.21 269.3 617.47C444.67 663.83 486.52 483.39 486.52 483.39C486.52 483.39 255.64 248.17 -0.41 651.58Z" />
				<path id="Layer" class="shp1" d="M474.49 480.45C474.49 480.45 669.38 541.91 680.41 654.7L714.67 588.94C714.77 588.99 650.44 501.33 474.49 480.45Z" />
				<path id="Layer" class="shp1" d="M598.87 431.06C598.87 431.06 610 535.64 670.76 549.66L641.03 569.81C640.83 569.71 597.74 528.39 598.87 431.06Z" />
				<path id="Layer" class="shp2" d="M-0.41 651.58C-0.41 651.58 11.94 641.12 35.95 629.83C248.33 334.38 437.13 461.73 481.81 498.82C485.15 489.34 486.57 483.29 486.57 483.29C486.57 483.29 255.64 248.17 -0.41 651.58Z" />
				<g id="Layer">
					<g id="Layer">
						<g id="Layer">
							<path id="Layer" class="shp2" d="M18.2 623.42C12.04 632.41 5.77 641.85 -0.41 651.58C-0.41 651.58 75.26 587.04 217.18 606.97C124.93 588.75 57.87 605.98 18.2 623.42Z" />
						</g>
						<g id="Layer">
							<path id="Layer" class="shp1" d="M344.35 416.84C417.55 433.03 463.1 479.58 463.1 479.58C463.1 479.58 426.69 636.58 279.14 619.89C446.26 657.01 486.47 483.49 486.47 483.49C486.47 483.49 430.96 426.94 344.35 416.84Z" />
						</g>
					</g>
				</g>
				<path id="Layer" class="shp0" d="M479.04 36.9C479.04 36.9 468.81 142.93 587.86 243.67C706.81 344.37 600.4 462.69 600.4 462.69C600.4 462.69 320.94 415.87 479.04 36.9Z" />
				<path id="Layer" class="shp2" d="M479.54 35.93C479.54 35.93 478.24 49.8 482.16 72.32C378.73 367.18 561.29 437.63 609.6 450.71C604.59 457.72 601.05 461.67 601.05 461.67C601.05 461.67 321.44 414.9 479.54 35.93Z" />
				<g id="Layer">
					<g id="Layer">
						<g id="Layer">
							<path id="Layer" class="shp2" d="M468.82 62.9C472.15 54.15 475.72 45.16 479.54 35.93C479.54 35.93 471.32 121.05 555.23 211.14C497.03 155.04 476.09 99.37 468.82 62.9Z" />
						</g>
						<g id="Layer">
							<path id="Layer" class="shp1" d="M483.99 394.27C531.45 437.86 586.62 447 586.62 447C586.62 447 679.42 343.91 594.92 248.34C703.33 347.74 600.86 461.57 600.86 461.57C600.86 461.57 533.69 450.37 483.99 394.27Z" />
						</g>
					</g>
				</g>
				<path id="Layer" class="shp3" d="M125.9 545.48C125.9 545.48 244.52 439.93 385.79 460.63C385.74 460.73 255.98 412.24 125.9 545.48Z" />
				<path id="Layer" class="shp3" d="M464.23 186.04C464.23 186.04 451.63 293.31 518.25 364.02C518.15 364.22 440.53 310.58 464.23 186.04Z" />
			</g>
		</g>
	</g>
</svg>